<svg id="圖層_2" data-name="圖層 2" xmlns="http://www.w3.org/2000/svg" viewBox="0 0 2360.01 1630.01"><defs><style>.cls-1{fill:none;stroke:#231815;stroke-miterlimit:10;stroke-width:0.5px;}</style></defs><title>Modular_Robot _parts</title><rect class="cls-1" x="1448.01" y="1308.11" width="283.46" height="266.46"/><circle class="cls-1" cx="1699.45" cy="1328.84" r="8.5"/><circle class="cls-1" cx="1480.4" cy="1553.22" r="8.5"/><circle class="cls-1" cx="1699.74" cy="1551.78" r="8.5"/><circle class="cls-1" cx="1480.4" cy="1328.84" r="8.5"/><circle class="cls-1" cx="1561.37" cy="1412.74" r="4.25"/><circle class="cls-1" cx="1618.38" cy="1412.74" r="4.25"/><circle class="cls-1" cx="1618.38" cy="1469.36" r="4.25"/><circle class="cls-1" cx="1561.37" cy="1469.74" r="4.25"/><rect class="cls-1" x="1580.36" y="1385.68" width="21.26" height="38.58"/><rect class="cls-1" x="1580.36" y="1458.22" width="21.26" height="38.58"/><rect class="cls-1" x="1554.74" y="1444.16" width="21.26" height="38.58" transform="translate(3018.27 -124.02) rotate(90)"/><rect class="cls-1" x="1627.11" y="1444.16" width="21.26" height="38.58" transform="translate(3090.65 -196.4) rotate(90)"/><rect class="cls-1" x="2056.23" y="1308.11" width="283.46" height="266.46"/><circle class="cls-1" cx="2307.67" cy="1328.84" r="8.5"/><circle class="cls-1" cx="2088.62" cy="1553.22" r="8.5"/><circle class="cls-1" cx="2307.96" cy="1551.78" r="8.5"/><circle class="cls-1" cx="2088.62" cy="1328.84" r="8.5"/><circle class="cls-1" cx="2169.59" cy="1412.74" r="4.25"/><circle class="cls-1" cx="2226.6" cy="1412.74" r="4.25"/><circle class="cls-1" cx="2226.6" cy="1469.36" r="4.25"/><circle class="cls-1" cx="2169.59" cy="1469.74" r="4.25"/><rect class="cls-1" x="2188.58" y="1385.68" width="21.26" height="38.58"/><rect class="cls-1" x="2188.58" y="1458.22" width="21.26" height="38.58"/><rect class="cls-1" x="2162.96" y="1444.16" width="21.26" height="38.58" transform="translate(3626.49 -732.25) rotate(90)"/><rect class="cls-1" x="2235.33" y="1444.16" width="21.26" height="38.58" transform="translate(3698.87 -804.62) rotate(90)"/><rect class="cls-1" x="1756.5" y="1308.11" width="283.46" height="266.46"/><circle class="cls-1" cx="2007.94" cy="1328.84" r="8.5"/><circle class="cls-1" cx="1788.89" cy="1553.22" r="8.5"/><circle class="cls-1" cx="2008.23" cy="1551.78" r="8.5"/><circle class="cls-1" cx="1788.89" cy="1328.84" r="8.5"/><circle class="cls-1" cx="1869.86" cy="1412.74" r="4.25"/><circle class="cls-1" cx="1926.87" cy="1412.74" r="4.25"/><circle class="cls-1" cx="1926.87" cy="1469.36" r="4.25"/><circle class="cls-1" cx="1869.86" cy="1469.74" r="4.25"/><rect class="cls-1" x="1888.85" y="1385.68" width="21.26" height="38.58"/><rect class="cls-1" x="1888.85" y="1458.22" width="21.26" height="38.58"/><rect class="cls-1" x="1863.23" y="1444.16" width="21.26" height="38.58" transform="translate(3326.77 -432.52) rotate(90)"/><rect class="cls-1" x="1935.6" y="1444.16" width="21.26" height="38.58" transform="translate(3399.14 -504.89) rotate(90)"/><rect class="cls-1" x="293.01" y="648.02" width="283.46" height="266.46"/><circle class="cls-1" cx="544.45" cy="668.74" r="8.5"/><circle class="cls-1" cx="325.4" cy="893.13" r="8.5"/><circle class="cls-1" cx="544.74" cy="891.68" r="8.5"/><circle class="cls-1" cx="325.4" cy="668.74" r="8.5"/><rect class="cls-1" x="425.36" y="725.58" width="21.26" height="38.58"/><rect class="cls-1" x="425.36" y="798.13" width="21.26" height="38.58"/><rect class="cls-1" x="399.74" y="784.07" width="21.26" height="38.58" transform="translate(1203.18 370.88) rotate(90)"/><rect class="cls-1" x="472.11" y="784.07" width="21.26" height="38.58" transform="translate(1275.56 298.51) rotate(90)"/><path class="cls-1" d="M355.12,44.34l-56.75,98.44V292.59h22.81V301h28.38v-8.18H502.81V301h29.12v-8.5h22.69V142.84l-56.94-98.5S431.5,1.78,355.12,44.34Z" transform="translate(-10.54 -22.11)"/><rect class="cls-1" x="301.76" y="185.31" width="8.5" height="28.35"/><rect class="cls-1" x="520.86" y="185.31" width="8.5" height="28.35"/><circle class="cls-1" cx="415.57" cy="145.34" r="4.25"/><path class="cls-1" d="M364,363.84l-56.75,98.44V612.09h22.81v8.38h28.38v-8.19H511.69v8.19h29.12V612H563.5V462.34l-56.94-98.5S440.38,321.28,364,363.84Z" transform="translate(-10.54 -22.11)"/><rect class="cls-1" x="310.64" y="504.81" width="8.5" height="28.35"/><rect class="cls-1" x="529.74" y="504.81" width="8.5" height="28.35"/><circle class="cls-1" cx="424.45" cy="464.84" r="4.25"/><path class="cls-1" d="M77.08,41.28,20.33,139.71V289.53H43.14v8.37H71.51v-8.19H224.76v8.19h29.13v-8.5h22.69V139.78l-56.94-98.5S153.45-1.29,77.08,41.28Z" transform="translate(-10.54 -22.11)"/><polygon class="cls-1" points="122 83.45 122 125.98 79.49 125.98 79.49 157.15 122 157.15 122 199.65 153.16 199.65 153.16 157.15 195.7 157.15 195.7 125.94 153.2 125.94 153.2 83.45 122 83.45"/><rect class="cls-1" x="23.71" y="182.24" width="8.5" height="28.35"/><rect class="cls-1" x="242.82" y="182.24" width="8.5" height="28.35"/><path class="cls-1" d="M81.85,346,10.79,468.46V610.84h50.6l28.37.19H243l29.13-.32h22.69V468.84L223.17,345.25S158.22,303.4,81.85,346Z" transform="translate(-10.54 -22.11)"/><rect class="cls-1" x="28.53" y="486.56" width="8.5" height="28.35"/><rect class="cls-1" x="247.41" y="486.56" width="8.5" height="28.35"/><rect class="cls-1" x="37.23" y="571.64" width="56.69" height="8.5"/><rect class="cls-1" x="190.59" y="571.64" width="56.69" height="8.5"/><rect class="cls-1" x="131.61" y="390.04" width="21.26" height="38.58"/><rect class="cls-1" x="131.61" y="462.58" width="21.26" height="38.58"/><rect class="cls-1" x="105.99" y="448.53" width="21.26" height="38.58" transform="translate(573.9 329.09) rotate(90)"/><rect class="cls-1" x="178.37" y="448.53" width="21.26" height="38.58" transform="translate(646.27 256.71) rotate(90)"/><path class="cls-1" d="M81.85,669.75,10.79,792.25V934.63h50.6l28.37.18H243l29.13-.31h22.69V792.63L223.17,669S158.22,627.19,81.85,669.75Z" transform="translate(-10.54 -22.11)"/><rect class="cls-1" x="28.53" y="810.34" width="8.5" height="28.35"/><rect class="cls-1" x="247.41" y="810.34" width="8.5" height="28.35"/><rect class="cls-1" x="37.23" y="895.43" width="56.69" height="8.5"/><rect class="cls-1" x="190.59" y="895.43" width="56.69" height="8.5"/><rect class="cls-1" x="131.61" y="713.83" width="21.26" height="38.58"/><rect class="cls-1" x="131.61" y="786.37" width="21.26" height="38.58"/><rect class="cls-1" x="105.99" y="772.31" width="21.26" height="38.58" transform="translate(897.68 652.87) rotate(90)"/><rect class="cls-1" x="178.37" y="772.31" width="21.26" height="38.58" transform="translate(970.06 580.5) rotate(90)"/><polygon class="cls-1" points="9.78 949.92 9.78 1216.9 46.7 1216.9 46.7 1225.4 103.36 1225.4 103.36 1216.98 200.45 1216.98 200.43 1225.4 257.45 1225.4 257.45 1216.9 294.28 1216.9 294.28 949.92 257.28 949.92 257.28 941.4 200.53 941.4 200.53 949.9 103.86 949.9 103.86 941.4 46.62 941.4 46.62 949.9 9.78 949.92"/><path class="cls-1" d="M215.78,1245.11" transform="translate(-10.54 -22.11)"/><rect class="cls-1" x="83.4" y="1013.57" width="138.9" height="138.9"/><rect class="cls-1" x="46.76" y="992.2" width="28.35" height="8.5"/><circle class="cls-1" cx="42.51" cy="970.69" r="4.25"/><rect class="cls-1" x="239.64" y="1014.29" width="28.35" height="8.5" transform="translate(497.09 2014.98) rotate(180)"/><circle class="cls-1" cx="261.7" cy="970.69" r="4.25"/><rect class="cls-1" x="239.64" y="1179" width="28.35" height="17.01" transform="translate(497.09 2352.9) rotate(180)"/><circle class="cls-1" cx="261.7" cy="1193.9" r="4.25"/><rect class="cls-1" x="57.4" y="1178.92" width="28.35" height="17.01" transform="translate(132.59 2352.73) rotate(180)"/><circle class="cls-1" cx="42.6" cy="1195.4" r="4.25"/><path class="cls-1" d="M341,964.09V1089h19.82v-8.5h4.25v-14.18h-4.25v-8.5h4.25v-8.5h8.5v8.5h4.25v8.5h-4.25v14.12h4.25V1089H397.7V964.09H377.83v17h-4.25v14.12h4.25v8.5h-4.25v8.5h-8.5v-8.43h-4.25v-8.32h4.25V981.28h-4.25V964.09Z" transform="translate(-10.54 -22.11)"/><path class="cls-1" d="M337.62,1105.5v56.75h-17v28.34h68.06v-28.36h-8.53V1105.5h-17v56.67h4.47v11.38h-17v-11.41h4.22V1105.5Z" transform="translate(-10.54 -22.11)"/><path class="cls-1" d="M409.22,1105.5v56.75h-17v28.34h68.06v-28.36h-8.53V1105.5h-17v56.67h4.47v11.38h-17v-11.41h4.22V1105.5Z" transform="translate(-10.54 -22.11)"/><path class="cls-1" d="M480.22,1105.5v56.75h-17v28.34h68.06v-28.36h-8.53V1105.5h-17v56.67h4.47v11.38h-17v-11.41h4.22V1105.5Z" transform="translate(-10.54 -22.11)"/><path class="cls-1" d="M550.72,1105.5v56.75h-17v28.34h68.06v-28.36h-8.53V1105.5h-17v56.67h4.47v11.38h-17v-11.41h4.22V1105.5Z" transform="translate(-10.54 -22.11)"/><circle class="cls-1" cx="361.54" cy="1209.68" r="28.35"/><circle class="cls-1" cx="361.76" cy="1209.68" r="4.25"/><path class="cls-1" d="M405.89,964.09V1089H425.7v-8.5H430v-14.18H425.7v-8.5H430v-8.5h8.5v8.5h4.25v8.5h-4.25v14.12h4.25V1089h19.87V964.09H442.7v17h-4.25v14.12h4.25v8.5h-4.25v8.5H430v-8.43H425.7v-8.32H430V981.28H425.7V964.09Z" transform="translate(-10.54 -22.11)"/><circle class="cls-1" cx="426.42" cy="1209.68" r="28.35"/><circle class="cls-1" cx="426.64" cy="1209.68" r="4.25"/><path class="cls-1" d="M469.11,964.09V1089h19.81v-8.5h4.25v-14.18h-4.25v-8.5h4.25v-8.5h8.5v8.5h4.25v8.5h-4.25v14.12h4.25V1089H525.8V964.09H505.92v17h-4.25v14.12h4.25v8.5h-4.25v8.5h-8.5v-8.43h-4.25v-8.32h4.25V981.28h-4.25V964.09Z" transform="translate(-10.54 -22.11)"/><circle class="cls-1" cx="489.64" cy="1209.68" r="28.35"/><circle class="cls-1" cx="489.86" cy="1209.68" r="4.25"/><path class="cls-1" d="M534.08,964.09V1089h19.81v-8.5h4.25v-14.18h-4.25v-8.5h4.25v-8.5h8.5v8.5h4.25v8.5h-4.25v14.12h4.25V1089h19.88V964.09H570.89v17h-4.25v14.12h4.25v8.5h-4.25v8.5h-8.5v-8.43h-4.25v-8.32h4.25V981.28h-4.25V964.09Z" transform="translate(-10.54 -22.11)"/><circle class="cls-1" cx="554.61" cy="1209.68" r="28.35"/><circle class="cls-1" cx="554.83" cy="1209.68" r="4.25"/><path class="cls-1" d="M932.71,1113.06v56.75h-17v28.33h68.06v-28.35H975.2v-56.73h-17v56.67h4.47v11.37h-17v-11.4h4.22v-56.64Z" transform="translate(-10.54 -22.11)"/><path class="cls-1" d="M1004.32,1113.06v56.75H987.27v28.33h68.07v-28.35h-8.54v-56.73h-17v56.67h4.46v11.37h-17v-11.4h4.22v-56.64Z" transform="translate(-10.54 -22.11)"/><path class="cls-1" d="M1075.32,1113.06v56.75h-17v28.33h68.07v-28.35h-8.54v-56.73h-17v56.67h4.46v11.37h-17v-11.4h4.22v-56.64Z" transform="translate(-10.54 -22.11)"/><path class="cls-1" d="M1145.82,1113.06v56.75h-17v28.33h68.07v-28.35h-8.54v-56.73h-17v56.67h4.46v11.37h-17v-11.4H1163v-56.64Z" transform="translate(-10.54 -22.11)"/><rect class="cls-1" x="883.95" y="657.42" width="283.46" height="266.46"/><circle class="cls-1" cx="1135.4" cy="678.15" r="8.5"/><circle class="cls-1" cx="916.35" cy="902.53" r="8.5"/><circle class="cls-1" cx="1135.69" cy="901.09" r="8.5"/><circle class="cls-1" cx="916.35" cy="678.15" r="8.5"/><rect class="cls-1" x="1016.31" y="734.98" width="21.26" height="38.58"/><rect class="cls-1" x="1016.31" y="807.53" width="21.26" height="38.58"/><rect class="cls-1" x="990.68" y="793.47" width="21.26" height="38.58" transform="translate(1803.53 -210.66) rotate(90)"/><rect class="cls-1" x="1063.06" y="793.47" width="21.26" height="38.58" transform="translate(1875.9 -283.04) rotate(90)"/><path class="cls-1" d="M946.07,53.74l-56.75,98.44V302h22.81v8.37h28.38v-8.18h153.25v8.18h29.12v-8.5h22.69V152.24l-56.94-98.5S1022.44,11.18,946.07,53.74Z" transform="translate(-10.54 -22.11)"/><rect class="cls-1" x="892.71" y="194.71" width="8.5" height="28.35"/><rect class="cls-1" x="1111.81" y="194.71" width="8.5" height="28.35"/><circle class="cls-1" cx="1006.51" cy="154.74" r="4.25"/><path class="cls-1" d="M955,373.25,898.2,471.68V621.5H921v8.37h28.37v-8.19h153.25v8.19h29.13v-8.5h22.69V471.75l-56.94-98.5S1031.32,330.68,955,373.25Z" transform="translate(-10.54 -22.11)"/><rect class="cls-1" x="901.58" y="514.21" width="8.5" height="28.35"/><rect class="cls-1" x="1120.69" y="514.21" width="8.5" height="28.35"/><circle class="cls-1" cx="1015.39" cy="474.24" r="4.25"/><path class="cls-1" d="M668,50.68l-56.75,98.43V298.93h22.82v8.37h28.37v-8.19H815.71v8.19h29.13v-8.5h22.68V149.18l-56.93-98.5S744.4,8.11,668,50.68Z" transform="translate(-10.54 -22.11)"/><polygon class="cls-1" points="712.95 92.85 712.95 135.38 670.44 135.38 670.44 166.55 712.95 166.55 712.95 209.05 744.1 209.05 744.1 166.55 786.64 166.55 786.64 135.34 744.14 135.34 744.14 92.85 712.95 92.85"/><rect class="cls-1" x="614.66" y="191.64" width="8.5" height="28.35"/><rect class="cls-1" x="833.76" y="191.64" width="8.5" height="28.35"/><path class="cls-1" d="M672.79,355.36l-71,122.5V620.24h50.6l28.37.19H834l29.13-.32h22.68V478.24L814.11,354.65S749.17,312.8,672.79,355.36Z" transform="translate(-10.54 -22.11)"/><rect class="cls-1" x="619.48" y="495.96" width="8.5" height="28.35"/><rect class="cls-1" x="838.35" y="495.96" width="8.5" height="28.35"/><rect class="cls-1" x="628.17" y="581.04" width="56.69" height="8.5"/><rect class="cls-1" x="781.53" y="581.04" width="56.69" height="8.5"/><rect class="cls-1" x="722.56" y="399.44" width="21.26" height="38.58"/><rect class="cls-1" x="722.56" y="471.98" width="21.26" height="38.58"/><rect class="cls-1" x="696.94" y="457.93" width="21.26" height="38.58" transform="translate(1174.24 -252.46) rotate(90)"/><rect class="cls-1" x="769.31" y="457.93" width="21.26" height="38.58" transform="translate(1246.62 -324.84) rotate(90)"/><path class="cls-1" d="M672.79,679.15l-71,122.5V944h50.6l28.37.18H834l29.13-.31h22.68V802L814.11,678.44S749.17,636.59,672.79,679.15Z" transform="translate(-10.54 -22.11)"/><rect class="cls-1" x="619.48" y="819.74" width="8.5" height="28.35"/><rect class="cls-1" x="838.35" y="819.74" width="8.5" height="28.35"/><rect class="cls-1" x="628.17" y="904.83" width="56.69" height="8.5"/><rect class="cls-1" x="781.53" y="904.83" width="56.69" height="8.5"/><rect class="cls-1" x="722.56" y="723.23" width="21.26" height="38.58"/><rect class="cls-1" x="722.56" y="795.77" width="21.26" height="38.58"/><rect class="cls-1" x="696.94" y="781.71" width="21.26" height="38.58" transform="translate(1498.03 71.33) rotate(90)"/><rect class="cls-1" x="769.31" y="781.71" width="21.26" height="38.58" transform="translate(1570.4 -1.05) rotate(90)"/><polygon class="cls-1" points="600.73 959.32 600.73 1226.3 637.64 1226.3 637.64 1234.8 694.31 1234.8 694.31 1226.38 791.39 1226.38 791.37 1234.8 848.39 1234.8 848.39 1226.3 885.23 1226.3 885.23 959.32 848.23 959.32 848.23 950.8 791.48 950.8 791.48 959.3 694.81 959.3 694.81 950.8 637.56 950.8 637.56 959.3 600.73 959.32"/><path class="cls-1" d="M806.73,1254.51" transform="translate(-10.54 -22.11)"/><rect class="cls-1" x="674.35" y="1022.97" width="138.9" height="138.9"/><rect class="cls-1" x="637.71" y="1001.6" width="28.35" height="8.5"/><circle class="cls-1" cx="633.46" cy="980.09" r="4.25"/><rect class="cls-1" x="830.59" y="1023.69" width="28.35" height="8.5" transform="translate(1678.98 2033.78) rotate(180)"/><circle class="cls-1" cx="852.64" cy="980.09" r="4.25"/><rect class="cls-1" x="830.59" y="1188.4" width="28.35" height="17.01" transform="translate(1678.98 2371.7) rotate(180)"/><circle class="cls-1" cx="852.64" cy="1203.3" r="4.25"/><rect class="cls-1" x="648.34" y="1188.32" width="28.35" height="17.01" transform="translate(1314.49 2371.53) rotate(180)"/><circle class="cls-1" cx="633.55" cy="1204.8" r="4.25"/><path class="cls-1" d="M932,973.49v124.87h19.81v-8.5H956v-14.18h-4.25v-8.5H956v-8.5h8.5v8.5h4.25v8.5h-4.25v14.12h4.25v8.56h19.88V973.49H968.77v17h-4.25v14.12h4.25v8.5h-4.25v8.5H956v-8.43h-4.25v-8.32H956V990.68h-4.25V973.49Z" transform="translate(-10.54 -22.11)"/><circle class="cls-1" cx="952.49" cy="1219.08" r="28.35"/><circle class="cls-1" cx="952.71" cy="1219.08" r="4.25"/><path class="cls-1" d="M996.83,973.49v124.87h19.82v-8.5h4.25v-14.18h-4.25v-8.5h4.25v-8.5h8.5v8.5h4.25v8.5h-4.25v14.12h4.25v8.56h19.87V973.49h-19.87v17h-4.25v14.12h4.25v8.5h-4.25v8.5h-8.5v-8.43h-4.25v-8.32h4.25V990.68h-4.25V973.49Z" transform="translate(-10.54 -22.11)"/><circle class="cls-1" cx="1017.36" cy="1219.08" r="28.35"/><circle class="cls-1" cx="1017.58" cy="1219.08" r="4.25"/><path class="cls-1" d="M1060.06,973.49v124.87h19.81v-8.5h4.25v-14.18h-4.25v-8.5h4.25v-8.5h8.5v8.5h4.25v8.5h-4.25v14.12h4.25v8.56h19.88V973.49h-19.88v17h-4.25v14.12h4.25v8.5h-4.25v8.5h-8.5v-8.43h-4.25v-8.32h4.25V990.68h-4.25V973.49Z" transform="translate(-10.54 -22.11)"/><circle class="cls-1" cx="1080.59" cy="1219.08" r="28.35"/><circle class="cls-1" cx="1080.81" cy="1219.08" r="4.25"/><path class="cls-1" d="M1125,973.49v124.87h19.81v-8.5h4.25v-14.18h-4.25v-8.5h4.25v-8.5h8.5v8.5h4.25v8.5h-4.25v14.12h4.25v8.56h19.87V973.49h-19.87v17h-4.25v14.12h4.25v8.5h-4.25v8.5h-8.5v-8.43h-4.25v-8.32h4.25V990.68h-4.25V973.49Z" transform="translate(-10.54 -22.11)"/><circle class="cls-1" cx="1145.56" cy="1219.08" r="28.35"/><circle class="cls-1" cx="1145.78" cy="1219.08" r="4.25"/><rect class="cls-1" x="1478.97" y="648.02" width="283.46" height="266.46"/><circle class="cls-1" cx="1730.42" cy="668.74" r="8.5"/><circle class="cls-1" cx="1511.36" cy="893.13" r="8.5"/><circle class="cls-1" cx="1730.71" cy="891.68" r="8.5"/><circle class="cls-1" cx="1511.36" cy="668.74" r="8.5"/><rect class="cls-1" x="1611.32" y="725.58" width="21.26" height="38.58"/><rect class="cls-1" x="1611.32" y="798.13" width="21.26" height="38.58"/><rect class="cls-1" x="1585.7" y="784.07" width="21.26" height="38.58" transform="translate(2389.15 -815.08) rotate(90)"/><rect class="cls-1" x="1658.08" y="784.07" width="21.26" height="38.58" transform="translate(2461.52 -887.46) rotate(90)"/><path class="cls-1" d="M1541.09,44.34l-56.75,98.44V292.59h22.81V301h28.37v-8.18h153.25V301h29.13v-8.5h22.69V142.84l-56.94-98.5S1617.46,1.78,1541.09,44.34Z" transform="translate(-10.54 -22.11)"/><rect class="cls-1" x="1487.72" y="185.31" width="8.5" height="28.35"/><rect class="cls-1" x="1706.82" y="185.31" width="8.5" height="28.35"/><circle class="cls-1" cx="1601.53" cy="145.34" r="4.25"/><path class="cls-1" d="M1550,363.84l-56.75,98.44V612.09H1516v8.38h28.37v-8.19h153.25v8.19h29.13V612h22.68V462.34l-56.93-98.5S1626.34,321.28,1550,363.84Z" transform="translate(-10.54 -22.11)"/><rect class="cls-1" x="1496.6" y="504.81" width="8.5" height="28.35"/><rect class="cls-1" x="1715.7" y="504.81" width="8.5" height="28.35"/><circle class="cls-1" cx="1610.41" cy="464.84" r="4.25"/><path class="cls-1" d="M1263,41.28l-56.75,98.43V289.53h22.81v8.37h28.38v-8.19h153.25v8.19h29.12v-8.5h22.69V139.78l-56.94-98.5S1339.42-1.29,1263,41.28Z" transform="translate(-10.54 -22.11)"/><polygon class="cls-1" points="1307.96 83.45 1307.96 125.98 1265.45 125.98 1265.45 157.15 1307.96 157.15 1307.96 199.65 1339.12 199.65 1339.12 157.15 1381.66 157.15 1381.66 125.94 1339.16 125.94 1339.16 83.45 1307.96 83.45"/><rect class="cls-1" x="1209.68" y="182.24" width="8.5" height="28.35"/><rect class="cls-1" x="1428.78" y="182.24" width="8.5" height="28.35"/><path class="cls-1" d="M1267.81,346l-71,122.5V610.84h50.59l28.38.19H1429l29.12-.32h22.69V468.84l-71.66-123.59S1344.19,303.4,1267.81,346Z" transform="translate(-10.54 -22.11)"/><rect class="cls-1" x="1214.5" y="486.56" width="8.5" height="28.35"/><rect class="cls-1" x="1433.37" y="486.56" width="8.5" height="28.35"/><rect class="cls-1" x="1223.19" y="571.64" width="56.69" height="8.5"/><rect class="cls-1" x="1376.55" y="571.64" width="56.69" height="8.5"/><rect class="cls-1" x="1317.58" y="390.04" width="21.26" height="38.58"/><rect class="cls-1" x="1317.58" y="462.58" width="21.26" height="38.58"/><rect class="cls-1" x="1291.96" y="448.53" width="21.26" height="38.58" transform="translate(1759.86 -856.88) rotate(90)"/><rect class="cls-1" x="1364.33" y="448.53" width="21.26" height="38.58" transform="translate(1832.23 -929.25) rotate(90)"/><path class="cls-1" d="M1267.81,669.75l-71,122.5V934.63h50.59l28.38.18H1429l29.12-.31h22.69V792.63L1409.13,669S1344.19,627.19,1267.81,669.75Z" transform="translate(-10.54 -22.11)"/><rect class="cls-1" x="1214.5" y="810.34" width="8.5" height="28.35"/><rect class="cls-1" x="1433.37" y="810.34" width="8.5" height="28.35"/><rect class="cls-1" x="1223.19" y="895.43" width="56.69" height="8.5"/><rect class="cls-1" x="1376.55" y="895.43" width="56.69" height="8.5"/><rect class="cls-1" x="1317.58" y="713.83" width="21.26" height="38.58"/><rect class="cls-1" x="1317.58" y="786.37" width="21.26" height="38.58"/><rect class="cls-1" x="1291.96" y="772.31" width="21.26" height="38.58" transform="translate(2083.65 -533.09) rotate(90)"/><rect class="cls-1" x="1364.33" y="772.31" width="21.26" height="38.58" transform="translate(2156.02 -605.47) rotate(90)"/><polygon class="cls-1" points="1195.74 949.92 1195.74 1216.9 1232.66 1216.9 1232.66 1225.4 1289.33 1225.4 1289.33 1216.98 1386.41 1216.98 1386.39 1225.4 1443.41 1225.4 1443.41 1216.9 1480.24 1216.9 1480.24 949.92 1443.24 949.92 1443.24 941.4 1386.49 941.4 1386.49 949.9 1289.83 949.9 1289.83 941.4 1232.58 941.4 1232.58 949.9 1195.74 949.92"/><path class="cls-1" d="M1401.75,1245.11" transform="translate(-10.54 -22.11)"/><rect class="cls-1" x="1269.37" y="1013.57" width="138.9" height="138.9"/><rect class="cls-1" x="1232.73" y="992.2" width="28.35" height="8.5"/><circle class="cls-1" cx="1228.48" cy="970.69" r="4.25"/><rect class="cls-1" x="1425.61" y="1014.29" width="28.35" height="8.5" transform="translate(2869.01 2014.98) rotate(180)"/><circle class="cls-1" cx="1447.66" cy="970.69" r="4.25"/><rect class="cls-1" x="1425.61" y="1179" width="28.35" height="17.01" transform="translate(2869.01 2352.9) rotate(180)"/><circle class="cls-1" cx="1447.66" cy="1193.9" r="4.25"/><rect class="cls-1" x="1243.36" y="1178.92" width="28.35" height="17.01" transform="translate(2504.52 2352.73) rotate(180)"/><circle class="cls-1" cx="1228.56" cy="1195.4" r="4.25"/><path class="cls-1" d="M1527,964.09V1089h19.81v-8.5H1551v-14.18h-4.25v-8.5H1551v-8.5h8.5v8.5h4.25v8.5h-4.25v14.12h4.25V1089h19.88V964.09h-19.88v17h-4.25v14.12h4.25v8.5h-4.25v8.5H1551v-8.43h-4.25v-8.32H1551V981.28h-4.25V964.09Z" transform="translate(-10.54 -22.11)"/><path class="cls-1" d="M1523.58,1105.5v56.75h-17v28.34h68.06v-28.36h-8.53V1105.5h-17v56.67h4.47v11.38h-17v-11.41h4.22V1105.5Z" transform="translate(-10.54 -22.11)"/><path class="cls-1" d="M1595.18,1105.5v56.75h-17v28.34h68.07v-28.36h-8.54V1105.5h-17v56.67h4.46v11.38h-17v-11.41h4.22V1105.5Z" transform="translate(-10.54 -22.11)"/><path class="cls-1" d="M1666.18,1105.5v56.75h-17v28.34h68.07v-28.36h-8.54V1105.5h-17v56.67h4.46v11.38h-17v-11.41h4.22V1105.5Z" transform="translate(-10.54 -22.11)"/><path class="cls-1" d="M1736.68,1105.5v56.75h-17v28.34h68.07v-28.36h-8.54V1105.5h-17v56.67h4.46v11.38h-17v-11.41h4.22V1105.5Z" transform="translate(-10.54 -22.11)"/><circle class="cls-1" cx="1547.51" cy="1209.68" r="28.35"/><circle class="cls-1" cx="1547.73" cy="1209.68" r="4.25"/><path class="cls-1" d="M1591.85,964.09V1089h19.81v-8.5h4.25v-14.18h-4.25v-8.5h4.25v-8.5h8.5v8.5h4.25v8.5h-4.25v14.12h4.25V1089h19.88V964.09h-19.88v17h-4.25v14.12h4.25v8.5h-4.25v8.5h-8.5v-8.43h-4.25v-8.32h4.25V981.28h-4.25V964.09Z" transform="translate(-10.54 -22.11)"/><circle class="cls-1" cx="1612.38" cy="1209.68" r="28.35"/><circle class="cls-1" cx="1612.6" cy="1209.68" r="4.25"/><path class="cls-1" d="M1655.07,964.09V1089h19.82v-8.5h4.25v-14.18h-4.25v-8.5h4.25v-8.5h8.5v8.5h4.25v8.5h-4.25v14.12h4.25V1089h19.87V964.09h-19.87v17h-4.25v14.12h4.25v8.5h-4.25v8.5h-8.5v-8.43h-4.25v-8.32h4.25V981.28h-4.25V964.09Z" transform="translate(-10.54 -22.11)"/><circle class="cls-1" cx="1675.6" cy="1209.68" r="28.35"/><circle class="cls-1" cx="1675.82" cy="1209.68" r="4.25"/><path class="cls-1" d="M1720,964.09V1089h19.82v-8.5h4.25v-14.18h-4.25v-8.5h4.25v-8.5h8.5v8.5h4.25v8.5h-4.25v14.12h4.25V1089h19.87V964.09h-19.87v17h-4.25v14.12h4.25v8.5h-4.25v8.5h-8.5v-8.43h-4.25v-8.32h4.25V981.28h-4.25V964.09Z" transform="translate(-10.54 -22.11)"/><circle class="cls-1" cx="1740.57" cy="1209.68" r="28.35"/><circle class="cls-1" cx="1740.79" cy="1209.68" r="4.25"/><path class="cls-1" d="M2106.18,1106.45v56.75h-17v28.34h68.06v-28.36h-8.53v-56.73h-17v56.67h4.47v11.38h-17v-11.41h4.22v-56.64Z" transform="translate(-10.54 -22.11)"/><path class="cls-1" d="M2177.79,1106.45v56.75h-17.05v28.34h68.07v-28.36h-8.53v-56.73h-17v56.67h4.47v11.38h-17v-11.41H2195v-56.64Z" transform="translate(-10.54 -22.11)"/><path class="cls-1" d="M2248.79,1106.45v56.75h-17.05v28.34h68.07v-28.36h-8.53v-56.73h-17v56.67h4.47v11.38h-17v-11.41H2266v-56.64Z" transform="translate(-10.54 -22.11)"/><path class="cls-1" d="M2319.29,1106.45v56.75h-17.05v28.34h68.07v-28.36h-8.53v-56.73h-17v56.67h4.47v11.38h-17v-11.41h4.21v-56.64Z" transform="translate(-10.54 -22.11)"/><rect class="cls-1" x="2071.57" y="648.02" width="283.46" height="266.46"/><circle class="cls-1" cx="2323.01" cy="668.74" r="8.5"/><circle class="cls-1" cx="2103.96" cy="893.13" r="8.5"/><circle class="cls-1" cx="2323.3" cy="891.68" r="8.5"/><circle class="cls-1" cx="2103.96" cy="668.74" r="8.5"/><rect class="cls-1" x="2203.92" y="725.58" width="21.26" height="38.58"/><rect class="cls-1" x="2203.92" y="798.13" width="21.26" height="38.58"/><rect class="cls-1" x="2178.3" y="784.07" width="21.26" height="38.58" transform="translate(2981.74 -1407.68) rotate(90)"/><rect class="cls-1" x="2250.67" y="784.07" width="21.26" height="38.58" transform="translate(3054.12 -1480.05) rotate(90)"/><path class="cls-1" d="M2133.68,44.34l-56.75,98.44V292.59h22.81V301h28.38v-8.18h153.25V301h29.12v-8.5h22.69V142.84l-56.94-98.5S2210.06,1.78,2133.68,44.34Z" transform="translate(-10.54 -22.11)"/><rect class="cls-1" x="2080.32" y="185.31" width="8.5" height="28.35"/><rect class="cls-1" x="2299.42" y="185.31" width="8.5" height="28.35"/><circle class="cls-1" cx="2194.13" cy="145.34" r="4.25"/><path class="cls-1" d="M2142.56,363.84l-56.75,98.44V612.09h22.81v8.38H2137v-8.19h153.25v8.19h29.12V612h22.69V462.34l-56.94-98.5S2218.94,321.28,2142.56,363.84Z" transform="translate(-10.54 -22.11)"/><rect class="cls-1" x="2089.2" y="504.81" width="8.5" height="28.35"/><rect class="cls-1" x="2308.3" y="504.81" width="8.5" height="28.35"/><circle class="cls-1" cx="2203.01" cy="464.84" r="4.25"/><path class="cls-1" d="M1855.64,41.28l-56.75,98.43V289.53h22.81v8.37h28.37v-8.19h153.25v8.19h29.13v-8.5h22.69V139.78l-56.94-98.5S1932-1.29,1855.64,41.28Z" transform="translate(-10.54 -22.11)"/><polygon class="cls-1" points="1900.56 83.45 1900.56 125.98 1858.05 125.98 1858.05 157.15 1900.56 157.15 1900.56 199.65 1931.72 199.65 1931.72 157.15 1974.26 157.15 1974.26 125.94 1931.76 125.94 1931.76 83.45 1900.56 83.45"/><rect class="cls-1" x="1802.27" y="182.24" width="8.5" height="28.35"/><rect class="cls-1" x="2021.38" y="182.24" width="8.5" height="28.35"/><path class="cls-1" d="M1860.41,346l-71.05,122.5V610.84H1840l28.37.19h153.25l29.13-.32h22.69V468.84l-71.66-123.59S1936.78,303.4,1860.41,346Z" transform="translate(-10.54 -22.11)"/><rect class="cls-1" x="1807.09" y="486.56" width="8.5" height="28.35"/><rect class="cls-1" x="2025.97" y="486.56" width="8.5" height="28.35"/><rect class="cls-1" x="1815.79" y="571.64" width="56.69" height="8.5"/><rect class="cls-1" x="1969.15" y="571.64" width="56.69" height="8.5"/><rect class="cls-1" x="1910.18" y="390.04" width="21.26" height="38.58"/><rect class="cls-1" x="1910.18" y="462.58" width="21.26" height="38.58"/><rect class="cls-1" x="1884.55" y="448.53" width="21.26" height="38.58" transform="translate(2352.46 -1449.48) rotate(90)"/><rect class="cls-1" x="1956.93" y="448.53" width="21.26" height="38.58" transform="translate(2424.83 -1521.85) rotate(90)"/><path class="cls-1" d="M1860.41,669.75l-71.05,122.5V934.63H1840l28.37.18h153.25l29.13-.31h22.69V792.63L2001.73,669S1936.78,627.19,1860.41,669.75Z" transform="translate(-10.54 -22.11)"/><rect class="cls-1" x="1807.09" y="810.34" width="8.5" height="28.35"/><rect class="cls-1" x="2025.97" y="810.34" width="8.5" height="28.35"/><rect class="cls-1" x="1815.79" y="895.43" width="56.69" height="8.5"/><rect class="cls-1" x="1969.15" y="895.43" width="56.69" height="8.5"/><rect class="cls-1" x="1910.18" y="713.83" width="21.26" height="38.58"/><rect class="cls-1" x="1910.18" y="786.37" width="21.26" height="38.58"/><rect class="cls-1" x="1884.55" y="772.31" width="21.26" height="38.58" transform="translate(2676.24 -1125.69) rotate(90)"/><rect class="cls-1" x="1956.93" y="772.31" width="21.26" height="38.58" transform="translate(2748.62 -1198.06) rotate(90)"/><polygon class="cls-1" points="1788.34 949.92 1788.34 1216.9 1825.26 1216.9 1825.26 1225.4 1881.92 1225.4 1881.92 1216.98 1979.01 1216.98 1978.99 1225.4 2036.01 1225.4 2036.01 1216.9 2072.84 1216.9 2072.84 949.92 2035.84 949.92 2035.84 941.4 1979.09 941.4 1979.09 949.9 1882.42 949.9 1882.42 941.4 1825.17 941.4 1825.17 949.9 1788.34 949.92"/><path class="cls-1" d="M1994.34,1245.11" transform="translate(-10.54 -22.11)"/><rect class="cls-1" x="1861.96" y="1013.57" width="138.9" height="138.9"/><rect class="cls-1" x="1825.32" y="992.2" width="28.35" height="8.5"/><circle class="cls-1" cx="1821.07" cy="970.69" r="4.25"/><rect class="cls-1" x="2018.2" y="1014.29" width="28.35" height="8.5" transform="translate(4054.21 2014.98) rotate(180)"/><circle class="cls-1" cx="2040.26" cy="970.69" r="4.25"/><rect class="cls-1" x="2018.2" y="1179" width="28.35" height="17.01" transform="translate(4054.21 2352.9) rotate(180)"/><circle class="cls-1" cx="2040.26" cy="1193.9" r="4.25"/><rect class="cls-1" x="1835.96" y="1178.92" width="28.35" height="17.01" transform="translate(3689.71 2352.73) rotate(180)"/><circle class="cls-1" cx="1821.16" cy="1195.4" r="4.25"/><path class="cls-1" d="M2105.43,966.88v124.88h19.81v-8.5h4.25v-14.19h-4.25v-8.5h4.25v-8.5h8.5v8.5h4.25v8.5H2138v14.12h4.25v8.57h19.88V966.88h-19.88v17H2138V998h4.25v8.5H2138v8.5h-8.5v-8.44h-4.25v-8.31h4.25V984.07h-4.25V966.88Z" transform="translate(-10.54 -22.11)"/><circle class="cls-1" cx="2125.96" cy="1212.47" r="28.35"/><circle class="cls-1" cx="2126.18" cy="1212.47" r="4.25"/><path class="cls-1" d="M2170.3,966.88v124.88h19.82v-8.5h4.25v-14.19h-4.25v-8.5h4.25v-8.5h8.5v8.5h4.25v8.5h-4.25v14.12h4.25v8.57H2227V966.88h-19.87v17h-4.25V998h4.25v8.5h-4.25v8.5h-8.5v-8.44h-4.25v-8.31h4.25V984.07h-4.25V966.88Z" transform="translate(-10.54 -22.11)"/><circle class="cls-1" cx="2190.83" cy="1212.47" r="28.35"/><circle class="cls-1" cx="2191.05" cy="1212.47" r="4.25"/><path class="cls-1" d="M2233.53,966.88v124.88h19.81v-8.5h4.25v-14.19h-4.25v-8.5h4.25v-8.5h8.5v8.5h4.25v8.5h-4.25v14.12h4.25v8.57h19.88V966.88h-19.88v17h-4.25V998h4.25v8.5h-4.25v8.5h-8.5v-8.44h-4.25v-8.31h4.25V984.07h-4.25V966.88Z" transform="translate(-10.54 -22.11)"/><circle class="cls-1" cx="2254.06" cy="1212.47" r="28.35"/><circle class="cls-1" cx="2254.28" cy="1212.47" r="4.25"/><path class="cls-1" d="M2298.5,966.88v124.88h19.81v-8.5h4.25v-14.19h-4.25v-8.5h4.25v-8.5h8.5v8.5h4.25v8.5h-4.25v14.12h4.25v8.57h19.88V966.88h-19.88v17h-4.25V998h4.25v8.5h-4.25v8.5h-8.5v-8.44h-4.25v-8.31h4.25V984.07h-4.25V966.88Z" transform="translate(-10.54 -22.11)"/><circle class="cls-1" cx="2319.03" cy="1212.47" r="28.35"/><circle class="cls-1" cx="2319.25" cy="1212.47" r="4.25"/><rect class="cls-1" x="181.66" y="1145.09" width="170.08" height="453.54" rx="85.04" ry="85.04" transform="translate(1628.02 1083.06) rotate(90)"/><rect class="cls-1" x="125.77" y="1313.06" width="56.69" height="116.22" transform="translate(1514.74 1194.94) rotate(90)"/><rect class="cls-1" x="130.58" y="1293.25" width="8.5" height="19.84" transform="translate(1427.45 1146.23) rotate(90)"/><rect class="cls-1" x="167.49" y="1293.25" width="8.5" height="19.84" transform="translate(1464.36 1109.32) rotate(90)"/><circle class="cls-1" cx="142.74" cy="1280.85" r="4.25"/><circle class="cls-1" cx="213.29" cy="1334.23" r="5.67"/><circle class="cls-1" cx="213.29" cy="1364.12" r="5.67"/><circle class="cls-1" cx="75.48" cy="1334.23" r="5.67"/><circle class="cls-1" cx="75.48" cy="1364.12" r="5.67"/><rect class="cls-1" x="351.79" y="1313.06" width="56.69" height="116.22" transform="translate(-1001.58 1729.2) rotate(-90)"/><circle class="cls-1" cx="299.87" cy="1363.89" r="5.67"/><circle class="cls-1" cx="299.87" cy="1334" r="5.67"/><circle class="cls-1" cx="437.69" cy="1363.89" r="5.67"/><circle class="cls-1" cx="437.69" cy="1334" r="5.67"/><rect class="cls-1" x="130.58" y="1430" width="8.5" height="19.84" transform="translate(1564.2 1282.98) rotate(90)"/><rect class="cls-1" x="167.49" y="1430" width="8.5" height="19.84" transform="translate(1601.11 1246.07) rotate(90)"/><circle class="cls-1" cx="142.74" cy="1417.6" r="4.25"/><rect class="cls-1" x="358.03" y="1293.25" width="8.5" height="19.84" transform="translate(1654.91 918.77) rotate(90)"/><rect class="cls-1" x="394.95" y="1293.25" width="8.5" height="19.84" transform="translate(1691.82 881.86) rotate(90)"/><circle class="cls-1" cx="370.2" cy="1280.85" r="4.25"/><rect class="cls-1" x="358.03" y="1430" width="8.5" height="19.84" transform="translate(1791.66 1055.52) rotate(90)"/><rect class="cls-1" x="394.95" y="1430" width="8.5" height="19.84" transform="translate(1828.57 1018.61) rotate(90)"/><circle class="cls-1" cx="370.2" cy="1417.6" r="4.25"/><rect class="cls-1" x="185.7" y="1333.94" width="170.08" height="453.54" rx="85.04" ry="85.04" transform="translate(1820.9 1267.86) rotate(90)"/><path class="cls-1" d="M184.74,1488H163.49s-7-9.64-14.46,0h-20.7v8.5H149s7,9.59,14.38,0h21.33Z" transform="translate(-10.54 -22.11)"/><path class="cls-1" d="M184.7,1624.25H163.45s-7-9.64-14.46,0H128.28v8.5H149s7,9.59,14.37,0H184.7Z" transform="translate(-10.54 -22.11)"/><path class="cls-1" d="M412.42,1624.25H391.17s-7-9.64-14.46,0H356v8.5h20.71s7,9.59,14.38,0h21.33Z" transform="translate(-10.54 -22.11)"/><path class="cls-1" d="M412.42,1488H391.17s-7-9.64-14.46,0H356v8.5h20.71s7,9.59,14.38,0h21.33Z" transform="translate(-10.54 -22.11)"/><circle class="cls-1" cx="117.27" cy="1538.26" r="28.35"/><circle class="cls-1" cx="402.01" cy="1538.18" r="28.35"/><circle class="cls-1" cx="259.4" cy="1469.93" r="4.25"/><circle class="cls-1" cx="259.44" cy="1606.4" r="4.25"/><rect class="cls-1" x="655.96" y="1333.51" width="170.08" height="453.54" rx="85.04" ry="85.04" transform="translate(2290.74 797.17) rotate(90)"/><rect class="cls-1" x="603.93" y="1482.33" width="8.5" height="19.84" transform="translate(2089.89 861.96) rotate(90)"/><rect class="cls-1" x="640.84" y="1482.33" width="8.5" height="19.84" transform="translate(2126.8 825.05) rotate(90)"/><circle class="cls-1" cx="616.09" cy="1469.94" r="4.25"/><rect class="cls-1" x="603.93" y="1619.08" width="8.5" height="19.84" transform="translate(2226.64 998.71) rotate(90)"/><rect class="cls-1" x="640.84" y="1619.08" width="8.5" height="19.84" transform="translate(2263.55 961.8) rotate(90)"/><circle class="cls-1" cx="616.09" cy="1606.69" r="4.25"/><rect class="cls-1" x="831.39" y="1482.33" width="8.5" height="19.84" transform="translate(2317.35 634.5) rotate(90)"/><rect class="cls-1" x="868.3" y="1482.33" width="8.5" height="19.84" transform="translate(2354.26 597.59) rotate(90)"/><circle class="cls-1" cx="843.55" cy="1469.94" r="4.25"/><rect class="cls-1" x="831.39" y="1619.08" width="8.5" height="19.84" transform="translate(2454.1 771.25) rotate(90)"/><rect class="cls-1" x="868.3" y="1619.08" width="8.5" height="19.84" transform="translate(2491.01 734.34) rotate(90)"/><circle class="cls-1" cx="843.55" cy="1606.69" r="4.25"/><circle class="cls-1" cx="587.8" cy="1538.27" r="28.35"/><circle class="cls-1" cx="872.54" cy="1538.19" r="28.35"/><circle class="cls-1" cx="729.93" cy="1469.94" r="4.25"/><circle class="cls-1" cx="729.97" cy="1606.41" r="4.25"/><rect class="cls-1" x="1119.89" y="1340.06" width="170.08" height="453.54" rx="85.04" ry="85.04" transform="translate(-372.45 2749.65) rotate(-90)"/><rect class="cls-1" x="1289.16" y="1509.42" width="56.69" height="116.22" transform="translate(-260.57 2862.92) rotate(-90)"/><rect class="cls-1" x="1332.54" y="1625.6" width="8.5" height="19.84" transform="translate(-309.28 2950.21) rotate(-90)"/><rect class="cls-1" x="1295.63" y="1625.6" width="8.5" height="19.84" transform="translate(-346.19 2913.3) rotate(-90)"/><circle class="cls-1" cx="1307.79" cy="1613.63" r="4.25"/><circle class="cls-1" cx="1237.24" cy="1560.25" r="5.67"/><circle class="cls-1" cx="1237.24" cy="1530.36" r="5.67"/><circle class="cls-1" cx="1375.06" cy="1560.25" r="5.67"/><circle class="cls-1" cx="1375.06" cy="1530.36" r="5.67"/><rect class="cls-1" x="1063.14" y="1509.42" width="56.69" height="116.22" transform="translate(2648.47 453.93) rotate(90)"/><circle class="cls-1" cx="1150.66" cy="1530.59" r="5.67"/><circle class="cls-1" cx="1150.66" cy="1560.47" r="5.67"/><circle class="cls-1" cx="1012.84" cy="1530.59" r="5.67"/><circle class="cls-1" cx="1012.84" cy="1560.47" r="5.67"/><rect class="cls-1" x="1332.54" y="1488.86" width="8.5" height="19.84" transform="translate(-172.53 2813.46) rotate(-90)"/><rect class="cls-1" x="1295.63" y="1488.86" width="8.5" height="19.84" transform="translate(-209.44 2776.55) rotate(-90)"/><circle class="cls-1" cx="1307.79" cy="1476.88" r="4.25"/><rect class="cls-1" x="1105.08" y="1625.6" width="8.5" height="19.84" transform="translate(-536.73 2722.75) rotate(-90)"/><rect class="cls-1" x="1068.17" y="1625.6" width="8.5" height="19.84" transform="translate(-573.65 2685.84) rotate(-90)"/><circle class="cls-1" cx="1080.34" cy="1613.63" r="4.25"/><rect class="cls-1" x="1105.08" y="1488.86" width="8.5" height="19.84" transform="translate(-399.99 2586.01) rotate(-90)"/><rect class="cls-1" x="1068.17" y="1488.86" width="8.5" height="19.84" transform="translate(-436.9 2549.09) rotate(-90)"/><circle class="cls-1" cx="1080.34" cy="1476.88" r="4.25"/><rect class="cls-1" x="1115.85" y="1151.21" width="170.08" height="453.54" rx="85.04" ry="85.04" transform="translate(-187.64 2556.76) rotate(-90)"/><path class="cls-1" d="M1286.88,1450.69h21.25s7,9.65,14.46,0h20.71v-8.5h-20.71s-7-9.58-14.38,0h-21.33Z" transform="translate(-10.54 -22.11)"/><path class="cls-1" d="M1286.93,1314.44h21.25s7,9.65,14.46,0h20.7v-8.5h-20.7s-7-9.58-14.38,0h-21.33Z" transform="translate(-10.54 -22.11)"/><path class="cls-1" d="M1059.2,1314.44h21.25s7,9.65,14.47,0h20.7v-8.5h-20.7s-7-9.58-14.38,0H1059.2Z" transform="translate(-10.54 -22.11)"/><path class="cls-1" d="M1059.2,1450.69h21.25s7,9.65,14.47,0h20.7v-8.5h-20.7s-7-9.58-14.38,0H1059.2Z" transform="translate(-10.54 -22.11)"/><circle class="cls-1" cx="1333.26" cy="1356.22" r="28.35"/><circle class="cls-1" cx="1048.52" cy="1356.3" r="28.35"/><circle class="cls-1" cx="1191.13" cy="1424.55" r="4.25"/><circle class="cls-1" cx="1191.09" cy="1288.08" r="4.25"/><rect class="cls-1" x="645.58" y="1151.64" width="170.08" height="453.54" rx="85.04" ry="85.04" transform="translate(-658.34 2086.92) rotate(-90)"/><rect class="cls-1" x="859.19" y="1436.52" width="8.5" height="19.84" transform="translate(-593.54 2287.77) rotate(-90)"/><rect class="cls-1" x="822.28" y="1436.52" width="8.5" height="19.84" transform="translate(-630.46 2250.86) rotate(-90)"/><circle class="cls-1" cx="834.44" cy="1424.54" r="4.25"/><rect class="cls-1" x="859.19" y="1299.77" width="8.5" height="19.84" transform="translate(-456.8 2151.02) rotate(-90)"/><rect class="cls-1" x="822.28" y="1299.77" width="8.5" height="19.84" transform="translate(-493.71 2114.11) rotate(-90)"/><circle class="cls-1" cx="834.44" cy="1287.79" r="4.25"/><rect class="cls-1" x="631.73" y="1436.52" width="8.5" height="19.84" transform="translate(-821 2060.31) rotate(-90)"/><rect class="cls-1" x="594.82" y="1436.52" width="8.5" height="19.84" transform="translate(-857.92 2023.4) rotate(-90)"/><circle class="cls-1" cx="606.98" cy="1424.54" r="4.25"/><rect class="cls-1" x="631.73" y="1299.77" width="8.5" height="19.84" transform="translate(-684.26 1923.57) rotate(-90)"/><rect class="cls-1" x="594.82" y="1299.77" width="8.5" height="19.84" transform="translate(-721.17 1886.65) rotate(-90)"/><circle class="cls-1" cx="606.98" cy="1287.79" r="4.25"/><circle class="cls-1" cx="862.74" cy="1356.21" r="28.35"/><circle class="cls-1" cx="578" cy="1356.29" r="28.35"/><circle class="cls-1" cx="720.61" cy="1424.54" r="4.25"/><circle class="cls-1" cx="720.57" cy="1288.07" r="4.25"/></svg>